<?xml version="1.0" encoding="utf-8"?>
<!-- Generator: Adobe Illustrator 24.0.2, SVG Export Plug-In . SVG Version: 6.00 Build 0)  -->
<svg version="1.1" id="Layer_1" xmlns="http://www.w3.org/2000/svg" xmlns:xlink="http://www.w3.org/1999/xlink" x="0px" y="0px"
	 viewBox="0 0 175 19.1" style="enable-background:new 0 0 175 19.1;" xml:space="preserve">
<style type="text/css">
	.st0{fill:#FFFFFF;}
	.st1{fill-rule:evenodd;clip-rule:evenodd;fill:#FFFFFF;}
</style>
<path class="st0" d="M166.9,4v13.1h-6c0,0,0-9.3,0-10c0-0.9-1.4-1.8-3.1-0.7c0,0-1,0.8-1,2.6v8h-6V1.8h6.1v1.8c0,0,4.6-2.4,6.9-1.9
	C163.9,1.6,166.3,1.9,166.9,4L166.9,4z"/>
<path class="st0" d="M146.3,4v13.1h-6c0,0,0-9.5,0-10c0-0.9-1.4-1.8-3.1-0.7c0,0-1,0.8-1,2.6v8h-6V1.7h6.1v1.8c0,0,4.6-2.4,6.9-1.9
	C143.2,1.6,145.7,1.9,146.3,4L146.3,4z"/>
<path class="st0" d="M81,17.1V1.7h6.1v2.1c0,0,3.9-2.4,6.2-2c0,0,1.9,0.1,3,2c0,0,3.7-2.7,6.6-1.9c0,0,2.5,0.7,2.6,2.6v12.6h-6.1
	V7.5c0,0-0.2-1.6-1.8-1.1c0,0-1.2,0.2-1.3,1.7v9h-6.1V7.7c0,0-0.7-1.9-2.3-0.8c0,0-0.8,0.5-0.8,2.1v8.1H81L81,17.1z"/>
<path class="st0" d="M30.2,17.1h5.3c3.3-0.1,3.1-2.9,3.1-2.9V1.6h-6.3v11.5c0,1.2-1.1,1.4-1.6,1.5c-0.2,0-0.3,0-0.3,0s-0.1,0-0.3,0
	c-0.5,0-1.6-0.2-1.6-1.5V1.6h-6.3v12.5c0,0-0.2,2.8,3.1,2.9h5.3h-0.4V17.1z"/>
<path class="st0" d="M71.1,7H77V3.2c0,0-0.3-1.6-2.5-1.6s-9.2,0-9.2,0S62.4,1.3,62,3.4v5.9c0,0,0.1,1.7,3.3,1.8h4c0,0,1.7,0,1.8,1.1
	c0,0,0.3,1.4-0.3,2c-0.3,0.3-0.5,0.5-1.2,0.5c-0.5,0-0.9-0.2-1.1-0.5c-0.3-0.5-0.3-0.8-0.3-1.8H62v2.7c0,0-0.2,2,2,2h10.7
	c0,0,2,0.2,2.5-2.3v-4.2c0,0-0.2-2.1-1.8-2.1c0,0-5.3-0.1-5.4-0.2c-0.3,0-1.8,0.2-1.7-1.1V5.6c0-0.9,0.8-1.4,1.5-1.4
	c0.9,0,1.4,0.5,1.5,1.4L71.1,7L71.1,7z"/>
<path class="st0" d="M52.1,7H58V3.2c0,0-0.3-1.6-2.5-1.6s-9.2,0-9.2,0S43.4,1.3,43,3.4v5.9c0,0,0.1,1.7,3.3,1.8h4c0,0,1.7,0,1.8,1.1
	c0,0,0.3,1.4-0.3,2c-0.3,0.3-0.5,0.5-1.2,0.5c-0.5,0-0.9-0.2-1.1-0.5c-0.3-0.5-0.3-0.8-0.3-1.8H43v2.7c0,0-0.2,2,2,2h10.7
	c0,0,2,0.2,2.5-2.3v-4.2c0,0-0.2-2.1-1.8-2.1c0,0-5.3-0.1-5.4-0.2c-0.3,0-1.8,0.2-1.7-1.1V5.6c0-0.9,0.8-1.4,1.5-1.4
	c0.9,0,1.4,0.5,1.5,1.4L52.1,7L52.1,7z"/>
<path class="st0" d="M9.6,10.7h1.2c0,0,0.7,0,0.7,0.8s0,5.6,0,5.6h6.4V1.6h-6.4v5.5c0,0,0,0.7-0.7,0.8c-0.1,0-1.2,0-1.2,0
	s-1,0-1.2,0c-0.7,0-0.7-0.7-0.7-0.7V1.6H1.4V17h6.3c0,0,0-4.9,0-5.6c0-0.8,0.7-0.8,0.7-0.8L9.6,10.7L9.6,10.7z"/>
<path class="st1" d="M171.3,5.7c1.4,0,2.6-1.1,2.6-2.5c0-1.5-1.2-2.5-2.6-2.5c-1.4,0-2.6,1.1-2.6,2.5C168.8,4.6,169.9,5.7,171.3,5.7
	L171.3,5.7z M169.3,3.1c0-1.2,0.9-2.1,2.1-2.1c1.1,0,2.1,0.9,2.1,2.1s-0.9,2.1-2.1,2.1S169.3,4.3,169.3,3.1L169.3,3.1z M170.8,3.3
	h0.5l0.8,1.3h0.5l-0.8-1.3c0.4-0.1,0.8-0.3,0.8-0.8c0-0.6-0.3-0.8-1-0.8h-1.1v2.9h0.4L170.8,3.3L170.8,3.3z M170.8,2.9V2h0.6
	c0.3,0,0.6,0.1,0.6,0.4c0,0.5-0.3,0.5-0.7,0.5H170.8L170.8,2.9z"/>
<path class="st1" d="M119.9,9.1V4.4c-0.1-0.2-0.2-0.7-1.1-0.7H118h-0.8c-0.5,0-1.1,0-1.1,0.8v4.3c0,1.2,0.7,1.1,0.7,1.1h1.1h1.2
	C119.2,10,119.9,10,119.9,9.1L119.9,9.1z M122.4,1.6c4.1-0.2,3.8,2.8,3.8,2.8v0.2v12.5h-6.3v-3.3c0-0.3-0.2-0.7-0.8-0.7H118
	c0,0-1,0-1.1,0c-0.3,0-0.8,0.3-0.8,0.7v3.4h-6.3V4.6c0,0-0.3-3,3.7-2.8h0.6h3.8h4.5V1.6z"/>
</svg>
